/* XPM */
static char *c388d78ad50b4ba697b95473267deca1[] = {
/* columns rows colors chars-per-pixel */
"16 16 2 1 ",
"  c #14204A",
". c None",
/* pixels */
".....      .....",
"...          ...",
"..            ..",
".. ...         .",
"........       .",
"..  .. ...      ",
".  ..  ....     ",
"  ..  .  ..     ",
" ..  ..  ...    ",
"..  .. ..  .    ",
".  .. ... ...   ",
". .. ... ....  .",
"... ... .. ..  .",
".. ... ..  .. ..",
"..... ..  ......",
"........ ......."
};
