/* XPM */
static char *cd5778bcb8304ee2b7b6298e6545d26b[] = {
/* columns rows colors chars-per-pixel */
"128 128 2 1 ",
"  c #14204A",
". c None",
/* pixels */
"..........................................................           ...........................................................",
"...................................................                         ....................................................",
"...............................................                                 ................................................",
"............................................                                        ............................................",
".........................................                                             ..........................................",
"......................................                                                   .......................................",
"....................................                                                       .....................................",
"..................................                                                           ...................................",
"................................                                                               .................................",
"...............................                                                                 ................................",
".............................                                                                     ..............................",
"............................                                                                        ............................",
"..........................                                                                           ...........................",
".........................                                                                             ..........................",
"........................                                                                                ........................",
"......................                                                                                   .......................",
".....................                                                                                     ......................",
"....................                                                                                       .....................",
"...................                                                                                         ....................",
"..................                                                                                           ...................",
".................                                                                                             ..................",
"................                                                                                               .................",
"................                                                                                                ................",
"...............                                                                                                  ...............",
"..............                                                                                                   ...............",
".............                                                                                                     ..............",
"............                 .....                                                                                 .............",
"............       ........................                                                                         ............",
"...........    .................................                                                                    ............",
"....................................................                                                                 ...........",
".......................................................                                                              ...........",
".........................................................                                                             ..........",
"............................................................                                                           .........",
"..............................................................                                                         .........",
"................................................................                                                        ........",
"..................................................................                                                      ........",
"...................................................................                                                      .......",
".....................................................................                                                    .......",
"..................        ............................................                                                    ......",
".................          .............................................                                                  ......",
"................            .............................................                                                 ......",
"...............             ...................   ........................                                                 .....",
"...............              ...............        ........................                                               .....",
"...............              ..............           .......................                                              .....",
"...............              .............            ........................                                              ....",
"...............              .............             ........................                                             ....",
"..............               ............              .........................                                            ....",
".............               .............              ..........................                                            ...",
"............                .............              ...........................                                           ...",
"...........                ..............              ............................                                          ...",
"..........                ..............               .............................                                         ...",
".........              ................                ..............................                                         ..",
"........            ..................                ................................                                        ..",
".......            ..................                .................................                                        ..",
"......            ..................                ...........       .................                                       ..",
".....            ..................            ..............          .................                                      ..",
"....            ..................            ...............           .................                                     ..",
"...            ..................            ...............             ................                                     ..",
"..            ..................            ...............              .................                                     .",
".            ..................            ................              .................                                     .",
"            ..................            .................              ..................                                    .",
"           ..................            ..................              ...................                                   .",
"          ..................            ..................               ...................                                   .",
"         ..................            ..................                ....................                                  .",
"        ..................            ..................                .....................                                  .",
"       ..................            ..................                 ......................                                 .",
"      ..................            ..................                ........................                                 .",
"     ..................            ..................               ...........................                                .",
"    ..................            ..................            ...............................                               ..",
".  ..................            ..................            .................................                              ..",
". ..................            ..................            ..................................                              ..",
"...................            ..................            ...................................                              ..",
"..................            ..................            ...............       ...............                             ..",
".................            ..................            ...............          .............                             ..",
"................            ..................            ...............           .............                             ..",
"...............            ..................            ...............             .............                            ..",
"..............            ..................            ................             .............                           ...",
".............            ..................            .................              ............                           ...",
"............            ..................            .................               .............                          ...",
"...........            ..................            ..................               .............                          ...",
"..........            ..................            ...................              ..............                         ....",
".........            ..................            ...................               ..............                         ....",
"........            ..................            ...................                ..............                         ....",
".......            ..................            ...................                ................                       .....",
"......            ..................            ...................                .................                       .....",
".....            ..................            ...................              ....................                       .....",
".....           ..................            ...................            .......................                      ......",
".....          ..................            ...................            ........................                      ......",
".....         ..................            ...................            .........................                     .......",
"......       ..................            ...................            ..........................                     .......",
"......      ..................            ...................            ............................                    .......",
".......    ..................            ...................            .............................                   ........",
".......   ..................            ...................            ..............................                   ........",
"........ ..................            ...................            ...............................                  .........",
"..........................            ...................            ................................                  .........",
".........................            ...................            .................................                 ..........",
"........................            ...................            ..................................                ...........",
".......................            ...................            ...................................                ...........",
"......................            ...................            ...............     ................               ............",
".....................            ...................            ..............         ..............              .............",
"....................            ...................            ..............           .............              .............",
"...................            ...................            ..............             ...........              ..............",
"..................            ...................            ...............             ...........             ...............",
".................            ...................            ...............              ...........            ................",
"................            ...................            ................              ...........            ................",
"................           ...................            .................              ...........           .................",
".................         ...................            ..................              ...........          ..................",
"..................       ...................            ..................               ...........         ...................",
"...................     ...................            ..................                ...........        ....................",
"....................   ...................            ..................                ...........        .....................",
"..................... ...................            ..................                ............       ......................",
"........................................            ..................               ..............     ........................",
".......................................            ..................            ..................    .........................",
"......................................            ..................            ..................    ..........................",
".....................................            ..................            ...................   ...........................",
"....................................            ..................            .................... .............................",
"...................................            ..................            ...................................................",
"..................................            ..................            ....................................................",
".................................            ..................            .....................................................",
"..................................          ..................            ......................................................",
"....................................       ..................            .......................................................",
"......................................    ..................            ........................................................",
"...........................................................            .........................................................",
"..........................................................            ..........................................................",
".........................................................            ...........................................................",
"........................................................            ............................................................",
"........................................................           .............................................................",
"................................................................................................................................"
};
