/* XPM */
static char *_c86eb981e7944159e2cd8bfb7f1441c[] = {
/* columns rows colors chars-per-pixel */
"32 32 2 1 ",
"  c #14204A",
". c None",
/* pixels */
".............      .............",
"..........             .........",
"........                ........",
"......                    ......",
".....                      .....",
"....                        ....",
"...                          ...",
".............                 ..",
"................              ..",
"..... ...........              .",
"....   ..... ......            .",
"....   ....   ......           .",
"...    ...    .......           ",
"..   ....    .........          ",
".   ....   ....   ....          ",
"   ....   .....    ....         ",
"  ....   .....    ......        ",
" ....   .....   ........        ",
"....   .....   ....  ...        ",
"...   .....   ....    ...       ",
"..   .....   .....   ....      .",
".   .....   .....   .....      .",
".  .....   .....   ......      .",
".......   .....   .......     ..",
"......   .....   ........     ..",
".....   .....   ...   ...    ...",
"....   .....   ....    ..   ....",
"..... .....   ....    ...  .....",
"..........   ....   ..... ......",
".........   ....   .............",
".........  ....   ..............",
"..............   ..............."
};
