/* XPM */
static char *_e1d5a547ca04ba2ad94730ee5beed16[] = {
/* columns rows colors chars-per-pixel */
"64 64 2 1 ",
"  c #14204A",
". c None",
/* pixels */
"...........................          ...........................",
".......................                  .......................",
".....................                       ....................",
"..................                            ..................",
"................                                ................",
"...............                                   ..............",
".............                                      .............",
"............                                        ............",
"...........                                           ..........",
"..........                                            ..........",
".........                                               ........",
"........                                                ........",
".......                                                  .......",
"......       ......                                       ......",
"...... ..................                                  .....",
"............................                               .....",
"..............................                              ....",
"................................                            ....",
"..................................                           ...",
".........    .......................                         ...",
"........      .......................                         ..",
"........      ........    ............                        ..",
"........       ......      ............                       ..",
".......        ......       ............                       .",
"......        .......       .............                      .",
".....        .......        ..............                     .",
"....      ..........       ................                     ",
"...      .........        ......   .........                    ",
"..      .........      ........     .........                   ",
".      .........       .......       ........                   ",
"      .........      .........       .........                  ",
"     .........      ..........       ..........                 ",
"    .........       .........        ..........                 ",
"   .........      ..........        ...........                 ",
"  .........      ..........      ...............                ",
" .........      ..........      ................                ",
"..........      .........      .......   ........               ",
"........      ..........      .......      ......               ",
".......      ..........      .......       .......             .",
".......      .........      ........       .......             .",
".....      ..........      .........       .......             .",
"....      ..........      .........        .......             .",
"...       .........      .........        ........            ..",
"...     ..........      .........      ............           ..",
"...    ..........      .........      .............          ...",
"...    .........      .........      ..............          ...",
"....  .........      .........      ...............         ....",
"..............      .........      ................         ....",
".............      .........      .................        .....",
"............      .........      ..................        .....",
"...........      .........      .......     .......       ......",
"..........      .........      .......       ......      .......",
".........      .........      ........       ......      .......",
"........      .........      .........       ......     ........",
".........    .........      .........        .....     .........",
"..........  .........      .........        ......    ..........",
"....................      .........        .......   ...........",
"...................      .........      .......... .............",
"..................      .........      .........................",
".................      .........      ..........................",
".................     .........      ...........................",
".................... .........      ............................",
".............................      .............................",
"............................      .............................."
};
